<?xml version="1.0" standalone="no"?>
<!DOCTYPE svg PUBLIC "-//W3C//DTD SVG 1.1//EN" "http://www.w3.org/Graphics/SVG/1.1/DTD/svg11.dtd">
<svg width="200px" height="200px" version="1.1" xmlns="http://www.w3.org/2000/svg" xmlns:xlink="http://www.w3.org/1999/xlink" xml:space="preserve" style="fill-rule:evenodd;clip-rule:evenodd;stroke-linejoin:round;stroke-miterlimit:1.41421;">
    <g>
        <g id="Layer1">
            <path d="M25.5867,200L25.5867,151.514C25.5867,129.841 43.1565,112.271 64.83,112.271L69.7115,112.271C69.7006,112.603 69.6952,112.937 69.6952,113.271C69.6952,130.008 83.2631,143.576 100,143.576C116.737,143.576 130.305,130.008 130.305,113.271C130.305,112.937 130.299,112.603 130.289,112.271L135.17,112.271C156.843,112.271 174.413,129.841 174.413,151.514L174.413,200Z" style="fill:rgb(245,160,31);"/>
            <path d="M81.1351,32.8278C70.454,39.2425 63.3067,50.9399 63.3067,64.3067C63.3067,80.4722 73.7604,94.1962 88.2765,99.0872C66.5883,93.8226 50.4834,74.2754 50.4834,50.9667C50.4834,23.6194 72.6527,1.45008 100,1.45008C127.347,1.45008 149.517,23.6194 149.517,50.9667C149.517,74.2754 133.412,93.8226 111.723,99.0872C126.24,94.1962 136.693,80.4722 136.693,64.3067C136.693,62.3254 136.536,60.3809 136.234,58.4839C127.652,60.9002 115.378,59.1806 103.458,53.1282C92.9562,47.7964 85.0079,40.2594 81.1351,32.8278Z" style="fill:rgb(31,167,220);"/>
        </g>
    </g>
</svg>
